<svg enable-background="new 0 0 512 512" viewBox="0 0 512 512" xmlns="http://www.w3.org/2000/svg"><g fill="#2b3b47"><path d="m61.175 317.517c39.42 0 63.792 9.961 63.792 37.513 0 14.098-7.459 22.987-16.891 27.905-2.72 1.418-2.458 5.457.421 6.518 12.317 4.537 22.616 13.506 22.616 32.124 0 33.485-27.127 42.81-64.215 42.81h-44.086c-1.988 0-3.6-1.612-3.6-3.6v-139.67c0-1.988 1.612-3.6 3.6-3.6zm-6.57 28.396v26.709c0 1.988 1.612 3.6 3.6 3.6h8.904c14.411 0 22.041-5.51 22.041-17.802 0-11.868-7.841-16.107-24.584-16.107h-6.361c-1.988 0-3.6 1.612-3.6 3.6zm0 89.442c0 1.988 1.612 3.6 3.6 3.6h8.904c16.319 0 27.551-3.391 27.551-19.286 0-14.835-9.961-20.346-25.008-20.346h-11.447c-1.988 0-3.6 1.612-3.6 3.6z"/><path d="m255.755 464.387h-29.601c-1.671 0-3.122-1.15-3.505-2.777l-6.113-26.025c-.382-1.627-1.834-2.777-3.505-2.777h-36.894c-1.671 0-3.122 1.15-3.505 2.777l-6.113 26.025c-.382 1.627-1.834 2.777-3.505 2.777h-28.748c-2.416 0-4.146-2.332-3.445-4.644l42.324-139.67c.46-1.518 1.859-2.556 3.445-2.556h37.041c1.588 0 2.988 1.04 3.447 2.561l42.122 139.67c.699 2.31-1.031 4.639-3.445 4.639zm-47.066-61.44-10.683-45.103c-.876-3.7-6.144-3.691-7.009.011l-10.534 45.103c-.527 2.258 1.187 4.419 3.506 4.419h21.216c2.324 0 4.039-2.169 3.504-4.43z"/><path d="m367.577 332.84-12.494 14.807c-1.233 1.462-3.41 1.736-4.926.57-7.07-5.433-14.606-8.447-23.648-8.447-18.439 0-31.578 15.047-31.578 50.863 0 34.97 12.927 50.228 32.426 50.228 10.364 0 18.047-4.523 25.583-10.145 1.575-1.175 3.796-.892 5.006.657l11.707 14.985c1.149 1.471 1.001 3.592-.378 4.85-9.891 9.024-25.054 16.781-43.825 16.781-40.267 0-67.182-26.915-67.182-77.355 0-49.38 28.187-76.931 66.123-76.931 18.333 0 31.281 5.205 42.645 13.963 1.619 1.249 1.861 3.609.541 5.174z"/><path d="m418.276 464.387h-28.193c-1.988 0-3.6-1.612-3.6-3.6v-139.67c0-1.988 1.612-3.6 3.6-3.6h28.193c1.988 0 3.6 1.612 3.6 3.6v139.67c0 1.988-1.612 3.6-3.6 3.6zm35.83-78.927 45.934 73.417c1.5 2.398-.224 5.509-3.052 5.509h-32.144c-1.27 0-2.445-.669-3.094-1.76l-44.41-74.688c-.714-1.2-.669-2.705.115-3.86l44.058-64.981c.67-.988 1.786-1.58 2.98-1.58h28.012c2.921 0 4.626 3.295 2.939 5.679l-41.224 58.276c-.84 1.185-.884 2.758-.114 3.988z"/><path d="m350.52 121.69h-125.095v-53.01c0-9.067-10.095-14.484-17.65-9.472l-136.584 90.61c-6.777 4.496-6.777 14.448 0 18.944l136.584 90.609c7.556 5.012 17.65-.405 17.65-9.472v-53.01h125.095c20.765 0 37.599-16.834 37.599-37.599s-16.833-37.6-37.599-37.6z"/></g></svg>