<svg width="32" height="29" viewBox="0 0 32 29" fill="none" xmlns="http://www.w3.org/2000/svg">
<g id="&#240;&#159;&#166;&#134; icon &#34;camera&#34;">
<path id="Vector" d="M32 7.55731V25.5573C32 27.2136 30.6562 28.5573 29 28.5573H3C1.34375 28.5573 0 27.2136 0 25.5573V7.55731C0 5.90106 1.34375 4.55731 3 4.55731H8.5L9.26875 2.50106C9.70625 1.33231 10.825 0.557312 12.075 0.557312H19.9188C21.1688 0.557312 22.2875 1.33231 22.725 2.50106L23.5 4.55731H29C30.6562 4.55731 32 5.90106 32 7.55731ZM23.5 16.5573C23.5 12.4198 20.1375 9.05731 16 9.05731C11.8625 9.05731 8.5 12.4198 8.5 16.5573C8.5 20.6948 11.8625 24.0573 16 24.0573C20.1375 24.0573 23.5 20.6948 23.5 16.5573ZM21.5 16.5573C21.5 19.5886 19.0312 22.0573 16 22.0573C12.9688 22.0573 10.5 19.5886 10.5 16.5573C10.5 13.5261 12.9688 11.0573 16 11.0573C19.0312 11.0573 21.5 13.5261 21.5 16.5573Z" fill="black"/>
</g>
</svg>
