<svg width="36" height="24" viewBox="0 0 36 24" fill="none" xmlns="http://www.w3.org/2000/svg">
<g id="Group 6">
<g id="Group">
<path id="Vector" d="M34.6337 10.7958H1.36634C0.653465 10.7958 0 11.3886 0 12.1592C0 12.8705 0.594059 13.5226 1.36634 13.5226H34.6337C35.3465 13.5226 36 12.9298 36 12.1592C36 11.3886 35.3465 10.7958 34.6337 10.7958Z" fill="black"/>
<path id="Vector_2" d="M34.6337 20.873H1.36634C0.653465 20.873 0 21.4658 0 22.2364C0 23.0071 0.594059 23.5999 1.36634 23.5999H34.6337C35.3465 23.5999 36 23.0071 36 22.2364C36 21.4658 35.3465 20.873 34.6337 20.873Z" fill="black"/>
<path id="Vector_3" d="M1.36634 3.32666H34.6337C35.3465 3.32666 36 2.73387 36 1.96326C36 1.19264 35.4059 0.599854 34.6337 0.599854H1.36634C0.653465 0.599854 0 1.19264 0 1.96326C0 2.73387 0.653465 3.32666 1.36634 3.32666Z" fill="black"/>
</g>
</g>
</svg>
