<svg width="25" height="34" viewBox="0 0 25 34" fill="none" xmlns="http://www.w3.org/2000/svg">
<g id="&#240;&#159;&#166;&#134; icon &#34;Alternate Map Marker&#34;">
<path id="Vector" d="M11.2154 33.2181C1.75586 19.5046 0 18.0972 0 13.0573C0 6.15373 5.59642 0.557312 12.5 0.557312C19.4036 0.557312 25 6.15373 25 13.0573C25 18.0972 23.2441 19.5046 13.7846 33.2181C13.1639 34.1149 11.8361 34.1148 11.2154 33.2181ZM12.5 18.2656C15.3765 18.2656 17.7083 15.9338 17.7083 13.0573C17.7083 10.1808 15.3765 7.84898 12.5 7.84898C9.6235 7.84898 7.29167 10.1808 7.29167 13.0573C7.29167 15.9338 9.6235 18.2656 12.5 18.2656Z" fill="black"/>
</g>
</svg>
