<svg width="32" height="37" viewBox="0 0 32 37" fill="none" xmlns="http://www.w3.org/2000/svg">
<path id="Vector" d="M31.67 31.3828L30.4437 29.4901C30.1984 29.1238 30.0758 28.7574 30.0758 28.33V15.6304C30.0758 12.0281 28.5428 8.66997 25.7223 6.16667C23.4536 4.15182 20.5104 2.86964 17.3832 2.62541V1.40429C17.3832 0.671617 16.7701 0 15.973 0C15.2372 0 14.5627 0.610561 14.5627 1.40429V2.56436C14.44 2.56436 14.3174 2.56436 14.1948 2.62541C7.08206 3.41914 1.74752 9.09736 1.74752 15.8746V28.33C1.6862 28.9406 1.56357 29.2459 1.44094 29.429L0.275924 31.3828C-0.0919748 31.9934 -0.0919748 32.7261 0.275924 33.3366C0.643824 33.8861 1.25699 34.2525 1.93147 34.2525H14.624V35.5957C14.624 36.3284 15.2372 37 16.0343 37C16.7701 37 17.4445 36.3894 17.4445 35.5957V34.2525H30.0758C30.7502 34.2525 31.3634 33.8861 31.7313 33.3366C32.0992 32.7261 32.0992 31.9934 31.67 31.3828ZM3.40307 31.5049L3.83228 30.7723C4.20018 30.1617 4.38413 29.429 4.50676 28.5743V15.8746C4.50676 10.5017 8.79892 5.9835 14.5014 5.37294C17.9964 5.0066 21.4301 6.04455 23.9441 8.24257C26.1515 10.1964 27.3778 12.8218 27.3778 15.6304V28.33C27.3778 29.2459 27.6231 30.1007 28.1749 30.9554L28.5428 31.5049H3.40307Z" fill="black"/>
</svg>
