<svg fill="none" height="24" viewBox="0 0 24 24" width="24" xmlns="http://www.w3.org/2000/svg"><g stroke="#141b34" stroke-linecap="round" stroke-linejoin="round" stroke-width="1.5"><path d="m10 9.5022c-1-1.00041-3.97857-3.72294-5.33935-3.48788-3.54753.61279-3.54753 11.36278 0 11.97558 1.36078.235 4.33935-2.4874 5.33935-3.4878"/><path d="m14 9.5022c1-1.00041 3.9786-3.72294 5.3393-3.48788 3.5476.61279 3.5476 11.36278 0 11.97558-1.3607.235-4.3393-2.4874-5.3393-3.4877"/><path d="m9.5 12.002c0-2.09885.6219-3.00005 2.5-3.00005 1.749 0 2.5.74627 2.5 3.00005 0 2.0988-.6219 3-2.5 3s-2.5-.9012-2.5-3z"/><path d="m9 12.002h-1"/><path d="m16 12.002h-1"/></g></svg>